<svg data-v-c53f24be="" xmlns="http://www.w3.org/2000/svg" width="256" height="256" version="1.0" viewBox="0 0 256 256" class="logo-image"><path data-v-c53f24be="" d="M 128,0 C 57.343,0 0,57.343 0,128 C 0,198.657 57.343,256 128,256 C 198.657,256 256,198.657 256,128 C 256,57.343 198.657,0 128,0 z M 128,28 C 181.423,28 224.757,71.334 224.757,124.757 C 224.757,139.486 221.04,153.32 214.356,165.42 C 198.756,148.231 178.567,138.124 162.876,124.331 C 155.723,124.214 128.543,124.043 113.254,124.043 C 113.254,147.334 113.254,172.064 113.254,190.513 C 100.456,179.347 94.543,156.243 94.543,156.243 C 83.432,147.065 31.243,124.757 31.243,124.757 C 31.243,71.334 74.577,28 128,28 z" style="fill: rgb(255, 255, 255);"></path></svg>
